<mxfile host="app.diagrams.net" modified="2020-12-15T15:11:54.729Z" agent="5.0 (X11; Linux x86_64) AppleWebKit/537.36 (KHTML, like Gecko) Chrome/86.0.4240.111 Safari/537.36" etag="S5dHphvv41mTYRoSVljg" version="14.0.1" type="github">
  <diagram id="RnRABxpDDt5b1IwRWzKa" name="Page-1">
    <mxGraphModel dx="797" dy="465" grid="1" gridSize="10" guides="1" tooltips="1" connect="1" arrows="1" fold="1" page="1" pageScale="1" pageWidth="850" pageHeight="1100" math="0" shadow="0">
      <root>
        <mxCell id="0" />
        <mxCell id="1" parent="0" />
        <mxCell id="_9VNZcvfp_z9cBX4aafC-1" value="" style="rounded=0;whiteSpace=wrap;html=1;fillColor=#fff2cc;strokeColor=#d6b656;" vertex="1" parent="1">
          <mxGeometry x="150" y="90" width="410" height="280" as="geometry" />
        </mxCell>
        <mxCell id="_9VNZcvfp_z9cBX4aafC-2" value="" style="rounded=0;whiteSpace=wrap;html=1;fillColor=#f8cecc;strokeColor=#b85450;" vertex="1" parent="1">
          <mxGeometry x="520" y="90" width="40" height="40" as="geometry" />
        </mxCell>
        <mxCell id="_9VNZcvfp_z9cBX4aafC-3" value="br0" style="rounded=0;whiteSpace=wrap;html=1;fillColor=#f8cecc;strokeColor=#b85450;" vertex="1" parent="1">
          <mxGeometry x="280" y="170" width="120" height="60" as="geometry" />
        </mxCell>
        <mxCell id="_9VNZcvfp_z9cBX4aafC-4" value="" style="endArrow=classic;html=1;exitX=1;exitY=0.25;exitDx=0;exitDy=0;" edge="1" parent="1" source="_9VNZcvfp_z9cBX4aafC-3">
          <mxGeometry width="50" height="50" relative="1" as="geometry">
            <mxPoint x="380" y="270" as="sourcePoint" />
            <mxPoint x="690" y="110" as="targetPoint" />
            <Array as="points">
              <mxPoint x="540" y="110" />
            </Array>
          </mxGeometry>
        </mxCell>
        <mxCell id="_9VNZcvfp_z9cBX4aafC-7" value="uplink port" style="text;html=1;strokeColor=#6c8ebf;fillColor=#dae8fc;align=center;verticalAlign=middle;whiteSpace=wrap;rounded=0;" vertex="1" parent="1">
          <mxGeometry x="360" y="170" width="40" height="20" as="geometry" />
        </mxCell>
        <mxCell id="_9VNZcvfp_z9cBX4aafC-8" value="ens4" style="text;html=1;strokeColor=none;fillColor=none;align=center;verticalAlign=middle;whiteSpace=wrap;rounded=0;" vertex="1" parent="1">
          <mxGeometry x="520" y="90" width="40" height="20" as="geometry" />
        </mxCell>
        <mxCell id="_9VNZcvfp_z9cBX4aafC-9" value="Internet" style="ellipse;shape=cloud;whiteSpace=wrap;html=1;fillColor=#1ba1e2;strokeColor=#006EAF;fontColor=#ffffff;" vertex="1" parent="1">
          <mxGeometry x="680" y="70" width="120" height="80" as="geometry" />
        </mxCell>
        <mxCell id="_9VNZcvfp_z9cBX4aafC-12" value="vnet0" style="text;html=1;strokeColor=#6c8ebf;fillColor=#dae8fc;align=center;verticalAlign=middle;whiteSpace=wrap;rounded=0;" vertex="1" parent="1">
          <mxGeometry x="280" y="210" width="40" height="20" as="geometry" />
        </mxCell>
        <mxCell id="_9VNZcvfp_z9cBX4aafC-14" value="VM" style="whiteSpace=wrap;html=1;aspect=fixed;fillColor=#e1d5e7;strokeColor=#9673a6;" vertex="1" parent="1">
          <mxGeometry x="180" y="260" width="80" height="80" as="geometry" />
        </mxCell>
        <mxCell id="_9VNZcvfp_z9cBX4aafC-15" value="ens3" style="text;html=1;strokeColor=#6c8ebf;fillColor=#dae8fc;align=center;verticalAlign=middle;whiteSpace=wrap;rounded=0;" vertex="1" parent="1">
          <mxGeometry x="220" y="260" width="40" height="20" as="geometry" />
        </mxCell>
        <mxCell id="_9VNZcvfp_z9cBX4aafC-16" value="" style="endArrow=classic;html=1;exitX=0;exitY=0.5;exitDx=0;exitDy=0;entryX=0.5;entryY=0;entryDx=0;entryDy=0;" edge="1" parent="1" source="_9VNZcvfp_z9cBX4aafC-12" target="_9VNZcvfp_z9cBX4aafC-15">
          <mxGeometry width="50" height="50" relative="1" as="geometry">
            <mxPoint x="380" y="260" as="sourcePoint" />
            <mxPoint x="430" y="210" as="targetPoint" />
            <Array as="points">
              <mxPoint x="240" y="220" />
            </Array>
          </mxGeometry>
        </mxCell>
      </root>
    </mxGraphModel>
  </diagram>
</mxfile>
